<svg width="1449" height="313" viewBox="0 0 1449 313" xmlns="http://www.w3.org/2000/svg">
<path d="M423.919 275.442C445.049 275.29 466.179 275.091 487.319 275.005C496.269 274.968 505.219 275.134 514.159 275.309C515.459 275.333 517.609 275.85 517.779 276.286C518.029 276.903 517.199 277.851 516.149 278.306C513.349 279.52 509.739 279.843 505.989 279.852C492.259 279.895 478.529 280.009 464.799 279.999C429.839 279.985 394.879 279.924 359.919 279.867C353.149 279.857 346.389 279.772 339.619 279.739C336.259 279.724 333.409 279.122 331.599 277.823C330.889 277.315 330.829 276.376 331.319 275.788C331.649 275.385 333.449 275.043 334.599 275.043C364.369 275.001 394.139 275.01 423.909 275.01C423.909 275.152 423.909 275.3 423.909 275.442H423.919Z" fill="#F2BB62"/>
<path d="M1120.11 22.4418C1179.49 22.29 1238.87 22.0908 1298.28 22.0055C1323.43 21.9675 1348.58 22.1335 1373.7 22.309C1377.35 22.3327 1383.4 22.8496 1383.87 23.286C1384.58 23.9025 1382.24 24.851 1379.29 25.3063C1371.43 26.5204 1361.28 26.8429 1350.74 26.8524C1312.16 26.8951 1273.58 27.0089 1234.99 26.9994C1136.75 26.9852 1038.51 26.9236 940.266 26.8666C921.242 26.8572 902.245 26.7718 883.221 26.7386C873.779 26.7244 865.77 26.1221 860.683 24.8226C858.688 24.3151 858.52 23.3761 859.897 22.788C860.824 22.3849 865.882 22.0434 869.114 22.0434C952.772 22.0007 1036.43 22.0102 1120.09 22.0102C1120.09 22.1525 1120.09 22.2995 1120.09 22.4418H1120.11Z" fill="#F2BB62"/>
<path d="M1316.59 232.675C1334.23 233.13 1351.88 233.728 1369.53 233.984C1377 234.097 1384.47 233.599 1391.94 233.073C1393.03 233.002 1394.82 231.451 1394.96 230.142C1395.17 228.292 1394.48 225.447 1393.6 224.081C1391.26 220.439 1388.25 219.471 1385.12 219.443C1373.65 219.315 1362.19 218.973 1350.72 219.002C1321.53 219.044 1292.34 219.229 1263.15 219.4C1257.49 219.429 1251.85 219.685 1246.2 219.784C1243.39 219.827 1241.01 221.634 1239.5 225.532C1238.91 227.055 1238.86 229.872 1239.27 231.636C1239.54 232.845 1241.04 233.87 1242.01 233.87C1266.86 233.998 1291.72 233.969 1316.58 233.969C1316.58 233.543 1316.58 233.101 1316.58 232.675H1316.59Z" fill="#F2BB62"/>
<path d="M792.376 191.442C883.423 191.29 974.469 191.091 1065.56 191.005C1104.12 190.968 1142.69 191.134 1181.21 191.309C1186.81 191.333 1196.07 191.85 1196.81 192.286C1197.88 192.903 1194.31 193.851 1189.78 194.306C1177.72 195.52 1162.16 195.843 1146.01 195.852C1086.84 195.895 1027.68 196.009 968.523 195.999C817.885 195.985 667.247 195.924 516.609 195.867C487.437 195.857 458.31 195.772 429.138 195.739C414.661 195.724 402.38 195.122 394.581 193.823C391.522 193.315 391.263 192.376 393.375 191.788C394.797 191.385 402.553 191.043 407.508 191.043C535.783 191.001 664.058 191.01 792.333 191.01C792.333 191.152 792.333 191.3 792.333 191.442H792.376Z" fill="#F2BB62"/>
<path d="M1033.33 208.884C1040.68 208.58 1048.03 208.182 1055.39 208.011C1058.5 207.935 1061.61 208.267 1064.72 208.618C1065.18 208.665 1065.93 209.699 1065.98 210.572C1066.07 211.805 1065.78 213.702 1065.42 214.613C1064.44 217.041 1063.19 217.686 1061.88 217.705C1057.11 217.79 1052.33 218.018 1047.55 217.999C1035.39 217.97 1023.22 217.847 1011.06 217.733C1008.71 217.714 1006.35 217.544 1004 217.477C1002.83 217.449 1001.84 216.244 1001.21 213.645C1000.96 212.63 1000.94 210.752 1001.11 209.576C1001.23 208.77 1001.85 208.087 1002.25 208.087C1012.61 208.001 1022.97 208.02 1033.33 208.02C1033.33 208.305 1033.33 208.599 1033.33 208.884H1033.33Z" fill="#F2BB62"/>
<path d="M1416.33 42.8836C1423.68 42.58 1431.03 42.1817 1438.39 42.0109C1441.5 41.935 1444.61 42.267 1447.72 42.618C1448.18 42.6654 1448.93 43.6993 1448.98 44.5719C1449.07 45.805 1448.78 47.7021 1448.42 48.6127C1447.44 51.0409 1446.19 51.6859 1444.88 51.7048C1440.11 51.7902 1435.33 52.0179 1430.55 51.9989C1418.39 51.9704 1406.22 51.8471 1394.06 51.7333C1391.71 51.7143 1389.35 51.5436 1387 51.4772C1385.83 51.4487 1384.84 50.2441 1384.21 47.6452C1383.96 46.6302 1383.94 44.7522 1384.11 43.576C1384.23 42.7697 1384.85 42.0868 1385.25 42.0868C1395.61 42.0014 1405.97 42.0204 1416.33 42.0204C1416.33 42.305 1416.33 42.599 1416.33 42.8836H1416.33Z" fill="#F2BB62"/>
<path d="M394.329 303.884C401.68 303.58 409.032 303.182 416.387 303.011C419.501 302.935 422.615 303.267 425.725 303.618C426.177 303.665 426.925 304.699 426.984 305.572C427.071 306.805 426.783 308.702 426.417 309.613C425.443 312.041 424.187 312.686 422.882 312.705C418.105 312.79 413.328 313.018 408.552 312.999C396.388 312.97 384.225 312.847 372.062 312.733C369.706 312.714 367.354 312.544 364.999 312.477C363.83 312.449 362.838 311.244 362.208 308.645C361.961 307.63 361.941 305.752 362.111 304.576C362.226 303.77 362.852 303.087 363.252 303.087C373.61 303.001 383.967 303.02 394.325 303.02C394.325 303.305 394.325 303.599 394.325 303.884H394.329Z" fill="#F2BB62"/>
<path d="M92.9191 190.932C114.049 190.612 135.179 190.192 156.319 190.012C165.269 189.932 174.219 190.282 183.159 190.652C184.459 190.702 186.609 191.792 186.779 192.712C187.029 194.012 186.199 196.012 185.149 196.972C182.349 199.532 178.739 200.212 174.989 200.232C161.259 200.322 147.529 200.562 133.799 200.542C98.8391 200.512 63.8791 200.382 28.9191 200.262C22.1491 200.242 15.3891 200.062 8.61907 199.992C5.25907 199.962 2.40907 198.692 0.599067 195.952C-0.110933 194.882 -0.170933 192.902 0.319067 191.662C0.649067 190.812 2.44907 190.092 3.59907 190.092C33.3691 190.002 63.1391 190.022 92.9091 190.022C92.9091 190.322 92.9091 190.632 92.9091 190.932H92.9191Z" fill="#F2BB62"/>
<path d="M1354.92 0.931517C1376.05 0.611517 1397.18 0.191517 1418.32 0.011517C1427.27 -0.068483 1436.22 0.281517 1445.16 0.651517C1446.46 0.701517 1448.61 1.79152 1448.78 2.71152C1449.03 4.01152 1448.2 6.01152 1447.15 6.97152C1444.35 9.53152 1440.74 10.2115 1436.99 10.2315C1423.26 10.3215 1409.53 10.5615 1395.8 10.5415C1360.84 10.5115 1325.88 10.3815 1290.92 10.2615C1284.15 10.2415 1277.39 10.0615 1270.62 9.99152C1267.26 9.96152 1264.41 8.69152 1262.6 5.95152C1261.89 4.88152 1261.83 2.90152 1262.32 1.66152C1262.65 0.811517 1264.45 0.091517 1265.6 0.091517C1295.37 0.00151695 1325.14 0.021517 1354.91 0.021517C1354.91 0.321517 1354.91 0.631517 1354.91 0.931517H1354.92Z" fill="#F2BB62"/>
</svg>
